<!DOCTYPE svg PUBLIC "-//W3C//DTD SVG 1.1//EN" "http://www.w3.org/Graphics/SVG/1.1/DTD/svg11.dtd">
<!-- Uploaded to: SVG Repo, www.svgrepo.com, Transformed by: SVG Repo Mixer Tools -->
<svg height="800px" width="800px" version="1.1" id="Layer_1" xmlns="http://www.w3.org/2000/svg" xmlns:xlink="http://www.w3.org/1999/xlink" viewBox="0 0 512.002 512.002" xml:space="preserve" fill="#FFBF00">
<g id="SVGRepo_bgCarrier" stroke-width="0"/>
<g id="SVGRepo_tracerCarrier" stroke-linecap="round" stroke-linejoin="round"/>
<g id="SVGRepo_iconCarrier"> <path style="fill:#99522E;" d="M353.653,110.454c-21.173-21.173-60.794-32.252-88.988-32.252h-35.936 c-8.553,0-16.06-6.263-17.004-14.764c-1.116-10.055,6.733-18.574,16.563-18.574h36.376c33.818,0,83.224,13.03,112.149,41.613 c6.094,6.022,7.064,15.746,1.752,22.468C372.257,116.932,360.635,117.436,353.653,110.454z"/> <path style="fill:#FF9F19;" d="M228.279,144.878h-66.676c-9.206,0-16.669-7.463-16.669-16.669V17.082 c0-9.206,7.463-16.669,16.669-16.669h66.676c9.206,0,16.669,7.463,16.669,16.669v111.127 C244.948,137.415,237.485,144.878,228.279,144.878z"/> <path style="fill:#F28618;" d="M228.279,0.413h-33.338v144.465h33.338c9.206,0,16.669-7.463,16.669-16.669V17.082 C244.948,7.876,237.485,0.413,228.279,0.413z"/> <path style="fill:#FFE14D;" d="M261.617,244.892H128.265c-9.206,0-16.669-7.463-16.669-16.669V117.096 c0-9.206,7.463-16.669,16.669-16.669h133.352c9.206,0,16.669,7.463,16.669,16.669v111.127 C278.286,237.429,270.823,244.892,261.617,244.892z"/> <path style="fill:#FFBF000000;" d="M261.617,100.427h-66.676v144.465h66.676c9.206,0,16.669-7.463,16.669-16.669V117.096 C278.286,107.89,270.823,100.427,261.617,100.427z"/> <path style="fill:#FFBF00;" d="M278.339,211.554H111.628C25.754,257.535-13.314,339.939,4.038,409.133 c7.727,30.81,41.803,102.456,190.913,102.456c149.033,0,183.261-71.657,191.054-102.467 C403.379,340.439,364.278,258.023,278.339,211.554z"/> <g> <path style="fill:#FFBF00;" d="M278.339,211.554h-83.398v300.035c0.003,0,0.007,0,0.01,0c149.033,0,183.261-71.657,191.054-102.467 C403.379,340.439,364.278,258.023,278.339,211.554z"/> <path style="fill:#FFBF00;" d="M436.652,253.435c-25.969,0-53.783-11.265-75.596-33.088 c-39.003-38.981-44.288-97.149-11.796-129.652c32.481-32.502,90.659-27.217,129.652,11.796 c39.003,38.981,44.288,97.149,11.796,129.652l0,0C476.393,246.458,457.097,253.435,436.652,253.435z"/> </g> </g>
</svg>