<svg width="196" height="191" viewBox="0 0 196 191" fill="none" xmlns="http://www.w3.org/2000/svg">
<g clip-path="url(#clip0_4016_22576)">
<path d="M124.429 42.9553H71.6156C70.4121 42.9568 69.2583 43.4347 68.4072 44.2843C67.5562 45.1339 67.0775 46.2858 67.076 47.4873V164.669L66.4707 164.854L53.5147 168.814C52.9007 169.001 52.2375 168.937 51.6707 168.637C51.1039 168.336 50.6797 167.823 50.4915 167.21L11.9533 41.5383C11.7658 40.9253 11.8297 40.263 12.131 39.6971C12.4324 39.1311 12.9465 38.7077 13.5603 38.52L33.5255 32.4169L91.4052 14.7301L111.37 8.62705C111.674 8.5337 111.993 8.50108 112.31 8.53106C112.626 8.56103 112.934 8.65302 113.215 8.80176C113.495 8.95049 113.744 9.15305 113.946 9.39784C114.149 9.64264 114.301 9.92486 114.394 10.2284L124.244 42.351L124.429 42.9553Z" fill="#FACC15"/>
<path d="M135.956 42.3505L124.083 3.6353C123.885 2.99023 123.563 2.39034 123.133 1.86991C122.703 1.34948 122.174 0.918714 121.578 0.602218C120.981 0.285722 120.328 0.0897004 119.655 0.0253617C118.983 -0.0389769 118.304 0.0296284 117.658 0.22725L89.5882 8.80478L31.7116 26.4946L3.64182 35.0752C2.33785 35.4749 1.24601 36.3748 0.605972 37.5774C-0.0340678 38.7799 -0.170021 40.1869 0.227959 41.4894L40.8058 173.802C41.1291 174.854 41.7815 175.774 42.6671 176.428C43.5528 177.082 44.6251 177.436 45.7268 177.437C46.2367 177.437 46.7437 177.361 47.2308 177.21L66.4727 171.331L67.0779 171.143V170.512L66.4727 170.696L47.0523 176.633C45.9013 176.983 44.6582 176.864 43.5955 176.3C42.5329 175.736 41.7375 174.775 41.3839 173.627L0.80915 41.3112C0.633949 40.7422 0.572887 40.1444 0.629458 39.5518C0.686029 38.9593 0.859117 38.3837 1.13882 37.8581C1.41853 37.3324 1.79935 36.867 2.25949 36.4885C2.71962 36.11 3.25002 35.8258 3.82032 35.6522L31.8901 27.0717L89.7669 9.38488L117.837 0.804328C118.269 0.672538 118.719 0.605341 119.171 0.60492C120.142 0.607096 121.086 0.919487 121.866 1.49634C122.646 2.07319 123.22 2.88419 123.505 3.81054L135.323 42.3505L135.511 42.9548H136.14L135.956 42.3505Z" fill="#FACC15"/>
<path d="M37.1275 38.6189C36.5442 38.6185 35.9764 38.4315 35.5074 38.0853C35.0383 37.7391 34.6928 37.2519 34.5214 36.6953L30.6233 23.9841C30.5186 23.6426 30.4822 23.2839 30.5163 22.9285C30.5505 22.573 30.6544 22.2277 30.8222 21.9124C30.99 21.597 31.2184 21.3177 31.4944 21.0905C31.7703 20.8633 32.0884 20.6925 32.4304 20.588L85.6764 4.31407C86.3672 4.10364 87.1133 4.17541 87.7511 4.51362C88.3889 4.85182 88.8662 5.42883 89.0783 6.11801L92.9764 18.8294C93.1871 19.519 93.1151 20.2638 92.7763 20.9005C92.4376 21.5372 91.8597 22.0137 91.1694 22.2256L37.9233 38.4995C37.6654 38.5785 37.3972 38.6188 37.1275 38.6189Z" fill="#FFFFFF"/>
<path d="M57.5489 13.5824C60.8917 13.5824 63.6017 10.877 63.6017 7.53971C63.6017 4.20245 60.8917 1.49707 57.5489 1.49707C54.206 1.49707 51.4961 4.20245 51.4961 7.53971C51.4961 10.877 54.206 13.5824 57.5489 13.5824Z" fill="#FFF8F6"/>
<path d="M57.5476 11.3659C59.6645 11.3659 61.3805 9.65278 61.3805 7.53952C61.3805 5.42627 59.6645 3.71313 57.5476 3.71313C55.4308 3.71313 53.7148 5.42627 53.7148 7.53952C53.7148 9.65278 55.4308 11.3659 57.5476 11.3659Z" fill="white"/>
<path d="M182.38 175.893H80.0881C79.406 175.893 78.7522 175.622 78.2699 175.14C77.7877 174.659 77.5164 174.006 77.5156 173.325V50.9617C77.5164 50.2808 77.7877 49.628 78.2699 49.1466C78.7522 48.6651 79.406 48.3943 80.0881 48.3936H182.38C183.062 48.3943 183.716 48.6652 184.198 49.1466C184.68 49.6281 184.952 50.2808 184.952 50.9617V173.325C184.952 174.006 184.68 174.659 184.198 175.14C183.716 175.622 183.062 175.892 182.38 175.893Z" fill="#FACC1540"/>
<path d="M135.323 42.3511H71.6175C70.2536 42.353 68.9461 42.8948 67.9817 43.8576C67.0173 44.8204 66.4746 46.1257 66.4727 47.4873V170.697L67.0779 170.512V47.4873C67.0794 46.2858 67.5581 45.1339 68.4092 44.2843C69.2602 43.4347 70.414 42.9568 71.6175 42.9553H135.511L135.323 42.3511ZM190.857 42.3511H71.6175C70.2536 42.353 68.9461 42.8948 67.9817 43.8576C67.0173 44.8204 66.4746 46.1257 66.4727 47.4873V185.864C66.4746 187.225 67.0173 188.531 67.9817 189.494C68.9461 190.456 70.2536 190.998 71.6175 191H190.857C192.221 190.998 193.529 190.456 194.493 189.494C195.458 188.531 196 187.225 196.002 185.864V47.4873C196 46.1257 195.458 44.8204 194.493 43.8576C193.529 42.8948 192.221 42.353 190.857 42.3511ZM195.397 185.864C195.395 187.065 194.917 188.217 194.066 189.067C193.215 189.916 192.061 190.394 190.857 190.396H71.6175C70.414 190.394 69.2602 189.916 68.4092 189.067C67.5581 188.217 67.0794 187.065 67.0779 185.864V47.4873C67.0794 46.2858 67.5581 45.1339 68.4092 44.2843C69.2602 43.4347 70.414 42.9568 71.6175 42.9553H190.857C192.061 42.9568 193.215 43.4347 194.066 44.2843C194.917 45.1339 195.395 46.2858 195.397 47.4873V185.864Z" fill="#FACC15"/>
<path d="M159.077 55.6448H103.392C102.67 55.644 101.977 55.3572 101.467 54.8475C100.956 54.3377 100.669 53.6465 100.668 52.9256V39.6318C100.669 38.9109 100.956 38.2197 101.467 37.7099C101.977 37.2002 102.67 36.9134 103.392 36.9126H159.077C159.799 36.9134 160.492 37.2002 161.002 37.7099C161.513 38.2197 161.8 38.9109 161.801 39.6318V52.9256C161.8 53.6465 161.513 54.3377 161.002 54.8475C160.492 55.3572 159.799 55.644 159.077 55.6448Z" fill="#FFFFFF"/>
<path d="M131.236 37.8189C134.579 37.8189 137.289 35.1135 137.289 31.7763C137.289 28.439 134.579 25.7336 131.236 25.7336C127.894 25.7336 125.184 28.439 125.184 31.7763C125.184 35.1135 127.894 37.8189 131.236 37.8189Z" fill="#FFF8F6"/>
<path d="M131.234 35.4568C133.27 35.4568 134.92 33.8089 134.92 31.7762C134.92 29.7435 133.27 28.0957 131.234 28.0957C129.197 28.0957 127.547 29.7435 127.547 31.7762C127.547 33.8089 129.197 35.4568 131.234 35.4568Z" fill="white"/>
</g>
<defs>
<clipPath id="clip0_4016_22576">
<rect width="196" height="191" fill="white"/>
</clipPath>
</defs>
</svg>
